<svg width="125" height="29" viewBox="0 0 125 29" fill="none" xmlns="http://www.w3.org/2000/svg">
<g id="Logo">
<g id="Group">
<path id="Vector" d="M35.71 23.2316V4.56494H47.1007V8.17784H40.0254V13.1958H47.1007V16.7585H40.0254V23.2316H35.71Z" fill="#ACACAC"/>
<path id="Vector_2" d="M49.96 23.2315V10.3857H54.0245V13.0452C54.2252 12.1419 54.6768 11.3892 55.3292 10.8875C55.9815 10.3857 56.7342 10.1348 57.537 10.1348C57.9385 10.1348 58.3399 10.1849 58.5908 10.2351V14.0487C58.089 13.9986 57.6876 13.9484 57.3865 13.9484C55.1284 13.9484 54.0245 15.4036 54.0245 18.2136V23.1814H49.96V23.2315Z" fill="#ACACAC"/>
<path id="Vector_3" d="M65.6172 23.5328C63.7606 23.5328 62.2552 22.8804 61.2014 21.626C60.0975 20.3715 59.5957 18.7156 59.5957 16.7586C59.5957 14.8016 60.1477 13.1958 61.2516 11.8912C62.3556 10.6367 63.8609 9.98438 65.6674 9.98438C66.5706 9.98438 67.3735 10.1851 68.076 10.5865C68.7785 10.988 69.3305 11.4898 69.6818 12.1923V10.3356H73.7463V23.1815H69.6818V21.3751C69.3305 22.0274 68.7785 22.5292 68.0258 22.9306C67.3233 23.3822 66.5205 23.5328 65.6172 23.5328ZM66.7714 20.1708C67.7248 20.1708 68.5276 19.8697 69.0294 19.2174C69.5312 18.565 69.8323 17.7622 69.8323 16.8087C69.8323 15.8553 69.5814 15.0525 69.0294 14.4001C68.4775 13.7478 67.7248 13.4467 66.7714 13.4467C65.8681 13.4467 65.1154 13.7478 64.5635 14.4001C64.0115 15.0023 63.7104 15.8553 63.7104 16.8087C63.7104 17.8123 64.0115 18.6152 64.5635 19.2675C65.1154 19.8697 65.8681 20.1708 66.7714 20.1708Z" fill="#ACACAC"/>
<path id="Vector_4" d="M77.1084 23.2318V10.3859H81.1729V12.2426C81.474 11.5902 81.9256 11.0383 82.578 10.6368C83.2303 10.2354 83.983 10.0347 84.836 10.0347C86.8432 10.0347 88.198 10.8375 88.8504 12.3931C89.2016 11.6906 89.7536 11.0884 90.4561 10.687C91.2088 10.2354 92.0117 10.0347 92.9149 10.0347C95.9758 10.0347 97.4812 11.7909 97.4812 15.2533V23.2318H93.3665V16.006C93.3665 14.2999 92.7142 13.497 91.4597 13.497C90.0045 13.497 89.302 14.5508 89.302 16.6583V23.282H85.2876V15.9558C85.2876 14.2999 84.6353 13.4469 83.3808 13.4469C82.6783 13.4469 82.1263 13.6978 81.7751 14.1494C81.4238 14.601 81.2231 15.454 81.2231 16.6081V23.2318H77.1084Z" fill="#ACACAC"/>
<path id="Vector_5" d="M113.438 16.1064C113.438 16.6583 113.388 17.2103 113.338 17.9128H103.854C103.904 18.7659 104.155 19.4182 104.707 19.8698C105.259 20.3214 105.962 20.5723 106.865 20.5723C108.119 20.5723 108.922 20.1709 109.274 19.368H113.288C113.087 20.6225 112.385 21.6762 111.231 22.4289C110.026 23.2318 108.621 23.6332 106.915 23.6332C104.707 23.6332 103.001 23.0311 101.747 21.8268C100.492 20.6225 99.8398 18.9666 99.8398 16.8089C99.8398 14.7013 100.492 13.0454 101.747 11.8411C103.001 10.6368 104.707 10.0347 106.765 10.0347C108.772 10.0347 110.378 10.5866 111.632 11.7408C112.786 12.8447 113.438 14.2999 113.438 16.1064ZM103.804 15.3537H109.374C109.374 14.5006 109.123 13.8483 108.671 13.3967C108.22 12.9451 107.567 12.6942 106.664 12.6942C105.811 12.6942 105.109 12.9451 104.607 13.4469C104.105 13.9486 103.854 14.601 103.804 15.3537Z" fill="#ACACAC"/>
<path id="Vector_6" d="M115.746 23.2315V10.3857H119.811V13.0452C120.011 12.1419 120.463 11.3892 121.115 10.8875C121.768 10.3857 122.52 10.1348 123.323 10.1348C123.725 10.1348 124.126 10.1849 124.377 10.2351V14.0487C123.875 13.9986 123.474 13.9484 123.173 13.9484C120.915 13.9484 119.811 15.4036 119.811 18.2136V23.1814H115.746V23.2315Z" fill="#ACACAC"/>
</g>
<g id="Group_2">
<g id="Group_3">
<path id="Vector_7" d="M19.1511 0.5V9.83333H9.81774L0.484375 0.5H19.1511ZM0.484375 9.83333H9.81774L19.1511 19.1667H9.81774V28.5L0.484375 19.1667V9.83333Z" fill="#ACACAC"/>
</g>
</g>
</g>
</svg>
