<svg width="110" height="27" viewBox="0 0 110 27" fill="none" xmlns="http://www.w3.org/2000/svg">
<g id="Logo">
<g id="Group">
<g id="Group_2">
<path id="Vector" fill-rule="evenodd" clip-rule="evenodd" d="M0.0546875 6.16346L11.9264 0L23.9257 6.16346L11.9264 12.3424L0.0546875 6.16346ZM71.3242 9.15634V9.00747C71.3242 6.97931 72.5173 6.32887 74.5268 6.47293V2.76451C69.7128 2.47104 67.4312 4.88285 67.4312 9.00747V9.15634H65.2541V12.8653H67.4312V24.092H71.3242V12.8653H75.8037V24.092H79.6967V12.8653H82.8993V9.15634H79.6967V9.00747C79.6967 6.97931 80.869 6.32887 82.8993 6.47293V2.76451C78.0853 2.47104 75.8037 4.88285 75.8037 9.00747V9.15634H71.3242ZM44.1129 13.2175C45.3476 12.2357 46.101 10.8323 46.101 9.02881C46.101 5.53329 43.2544 3.14336 39.6751 3.14336H31.365V24.0493H40.3447C44.0078 24.0493 46.9382 21.5788 46.9382 17.9984C46.8966 15.8374 45.8081 14.1827 44.1129 13.2175ZM39.6959 7.01719C41.0357 7.01719 41.9567 8.00379 41.9567 9.32229C41.9567 10.645 40.9936 11.6268 39.6959 11.6268H35.5307V7.01719H39.6959ZM40.3239 20.2181H35.5307V15.2926H40.3239C41.7475 15.2926 42.7731 16.3384 42.7731 17.7417C42.7731 19.167 41.7475 20.2181 40.3239 20.2181ZM59.0789 9.135V17.198C59.0789 19.7966 57.6558 20.9064 55.7509 20.9064C53.9922 20.9064 52.7575 19.8606 52.7575 17.8271V9.135H48.864V18.3079C48.864 22.2884 51.3553 24.4921 54.5787 24.4921C56.609 24.4921 58.1788 23.7345 59.0581 22.3952V24.0706H62.9512V9.135H59.0789ZM99.0376 18.1846H87.6514C88.2165 20.1541 89.8487 20.9918 91.8795 20.9918C93.4072 20.9918 94.6216 20.3617 95.2705 19.5031L98.4101 21.2853C97.0078 23.3177 94.747 24.4921 91.8374 24.4921C86.772 24.4921 83.5695 21.0558 83.5695 16.5951C83.5695 12.129 86.7929 8.69212 91.5444 8.69212C96.0031 8.69212 99.1849 12.193 99.1849 16.5951C99.1849 17.1767 99.1219 17.6836 99.0376 18.1846ZM91.5444 12.193C89.4517 12.193 88.0276 13.3028 87.5879 15.2072H95.2913C94.8095 13.0521 93.1772 12.193 91.5444 12.193ZM104.815 11.7122V9.135H100.922V24.0706H104.815V16.9259C104.815 13.7825 107.37 12.8866 109.399 13.1369V8.84206C107.495 8.84206 105.59 9.67979 104.815 11.7122ZM11.9264 22.9127L3.82714 18.5106L0.0546875 20.5543L11.9264 27L23.9257 20.5543L20.1106 18.5106L11.9264 22.9127ZM3.82714 11.5687L11.9264 15.5594L20.1106 11.5687L23.9257 13.4309L11.9264 19.2843L0.0546875 13.4309L3.82714 11.5687Z" fill="#ACACAC"/>
</g>
</g>
</g>
</svg>
