<svg width="133" height="27" viewBox="0 0 133 27" fill="none" xmlns="http://www.w3.org/2000/svg">
<g id="Logo">
<path id="Vector" d="M15.3943 5.39028L7.73282 10.2806L15.3943 15.1708L7.73282 20.0611L0.0712891 15.1301L7.73282 10.2398L0.0712891 5.39028L7.73282 0.5L15.3943 5.39028ZM7.69206 21.6097L15.3536 16.7194L23.0151 21.6097L15.3536 26.5L7.69206 21.6097ZM15.3943 15.1301L23.0559 10.2398L15.3943 5.39028L23.0151 0.5L30.6766 5.39028L23.0151 10.2806L30.6766 15.1708L23.0151 20.0611L15.3943 15.1301Z" fill="#ACACAC"/>
<path id="Vector_2" d="M36.666 5.39099H42.8604C46.8135 5.39099 50.0737 7.67312 50.0737 12.8894V13.9897C50.0737 19.2468 47.0172 21.6104 42.9827 21.6104H36.666V5.39099ZM40.13 8.32516V18.6355H42.7789C45.0203 18.6355 46.5282 17.1684 46.5282 13.9082V13.0524C46.5282 9.79224 44.9388 8.32516 42.6567 8.32516H40.13ZM51.9076 8.48817H54.6788L55.127 11.5446C55.6568 9.46622 57.0017 8.36591 59.4468 8.36591H60.3026V11.8706H58.8763C56.0644 11.8706 55.3716 12.8487 55.3716 15.6198V21.6512H51.9483V8.48817H51.9076ZM60.9954 15.3346V14.9678C60.9954 10.5665 63.8074 8.16215 67.6382 8.16215C71.5504 8.16215 74.2809 10.5665 74.2809 14.9678V15.3346C74.2809 19.6543 71.6319 21.9772 67.6382 21.9772C63.3999 21.9364 60.9954 19.6543 60.9954 15.3346ZM70.7761 15.2938V14.9678C70.7761 12.5227 69.5535 11.0556 67.5974 11.0556C65.682 11.0556 64.4187 12.4004 64.4187 14.9678V15.2938C64.4187 17.6574 65.6413 19.0023 67.5974 19.0023C69.5535 18.9615 70.7761 17.6574 70.7761 15.2938ZM76.074 8.48817H78.9267L79.2527 10.9741C79.9455 9.30322 81.4126 8.16215 83.5725 8.16215C86.9142 8.16215 89.1149 10.5665 89.1149 15.0085V15.3753C89.1149 19.6951 86.6697 21.9772 83.5725 21.9772C81.4941 21.9772 80.0678 21.0399 79.375 19.5321V26.1747H76.0332L76.074 8.48817ZM85.6509 15.2938V15.0085C85.6509 12.4004 84.306 11.0963 82.5129 11.0963C80.5975 11.0963 79.3342 12.5634 79.3342 15.0085V15.2531C79.3342 17.5759 80.5568 19.043 82.4722 19.043C84.4283 19.0023 85.6509 17.739 85.6509 15.2938ZM94.1682 19.206L93.883 21.6104H90.9488V4.08691H94.2905V10.8111C95.024 9.09945 96.4911 8.16215 98.5695 8.16215C101.707 8.2029 104.03 10.3628 104.03 14.7233V15.1308C104.03 19.4913 101.83 21.9772 98.488 21.9772C96.2874 21.9364 94.861 20.9176 94.1682 19.206ZM100.526 15.1308V14.8048C100.526 12.4004 99.2216 11.0556 97.3877 11.0556C95.5131 11.0556 94.209 12.5634 94.209 14.8455V15.1308C94.209 17.5759 95.4723 19.0023 97.3469 19.0023C99.3438 19.0023 100.526 17.739 100.526 15.1308ZM105.498 15.3346V14.9678C105.498 10.5665 108.309 8.16215 112.14 8.16215C116.052 8.16215 118.783 10.5665 118.783 14.9678V15.3346C118.783 19.6543 116.093 21.9772 112.14 21.9772C107.902 21.9364 105.498 19.6543 105.498 15.3346ZM115.319 15.2938V14.9678C115.319 12.5227 114.096 11.0556 112.14 11.0556C110.225 11.0556 108.962 12.4004 108.962 14.9678V15.2938C108.962 17.6574 110.184 19.0023 112.14 19.0023C114.096 18.9615 115.319 17.6574 115.319 15.2938ZM123.266 14.8048L118.661 8.48817H122.614L125.263 12.4411L127.952 8.48817H131.865L127.178 14.764L132.109 21.6104H128.238L125.222 17.2499L122.288 21.6104H118.253L123.266 14.8048Z" fill="#ACACAC"/>
</g>
</svg>
