<svg width="99" height="29" viewBox="0 0 99 29" fill="none" xmlns="http://www.w3.org/2000/svg">
<g id="Logo">
<path id="Vector" d="M11.2188 5.23926V13.0989H3.99807V5.23926H0.572266V24.0013H3.999V16.3967H11.2179V24.0013H14.6455V5.23926H11.2188ZM25.6138 17.9371C25.6138 18.6891 25.3151 19.4103 24.7833 19.9421C24.2516 20.4738 23.5303 20.7725 22.7783 20.7725C22.0263 20.7725 21.3051 20.4738 20.7733 19.9421C20.2415 19.4103 19.9428 18.6891 19.9428 17.9371V9.90031H16.6923V17.9371C16.6923 19.5496 17.3329 21.096 18.4731 22.2362C19.6133 23.3764 21.1598 24.017 22.7723 24.017C24.3848 24.017 25.9313 23.3764 27.0715 22.2362C28.2117 21.096 28.8523 19.5496 28.8523 17.9371V9.90031H25.6138V17.9371ZM49.6993 10.7285C49.6993 9.0805 50.789 8.55838 51.9825 8.55838C52.9452 8.55838 54.2157 9.29102 55.0476 10.1795L57.1759 7.66994C56.1131 6.23249 53.9579 5.23926 52.193 5.23926C48.6661 5.23926 46.1158 7.30455 46.1158 10.7285C46.1158 17.0811 53.88 15.0649 53.88 18.6205C53.88 19.7167 52.8153 20.6849 51.5967 20.6849C49.6742 20.6849 49.051 19.7455 48.1681 18.7513L45.8051 21.208C47.3168 23.0627 49.1809 24.005 51.4131 24.005C54.7638 24.005 57.4588 21.9146 57.4588 18.6465C57.4588 11.5947 49.6937 13.7861 49.6937 10.7285M97.7329 21.0039C95.8122 21.0039 95.266 20.173 95.266 18.9006V13.2667H98.2522V10.4122H95.266V6.64611L91.97 8.12529V19.6008C91.97 22.536 93.9955 24.0152 96.7721 24.0152C97.208 24.0226 97.6438 23.9873 98.0723 23.9113L98.8764 20.9511C98.5137 20.9761 98.0973 21.0012 97.7329 21.0012M37.9872 9.99398C36.3772 9.99398 35.2532 10.4614 34.1663 11.527V5.35147H30.9111V16.7982C30.9111 21.0828 34.0086 24.0189 37.4901 24.0189C41.3518 24.0189 44.7488 21.0308 44.7488 17.0078C44.7488 13.0349 41.6226 9.99676 37.9872 9.99676M37.9668 20.7424C37.4816 20.7424 37.0012 20.6469 36.553 20.4612C36.1048 20.2755 35.6976 20.0034 35.3545 19.6604C35.0115 19.3173 34.7393 18.9101 34.5537 18.4619C34.368 18.0137 34.2725 17.5333 34.2725 17.0482C34.2725 16.563 34.368 16.0826 34.5537 15.6344C34.7393 15.1862 35.0115 14.779 35.3545 14.4359C35.6976 14.0929 36.1048 13.8208 36.553 13.6351C37.0012 13.4495 37.4816 13.3539 37.9668 13.3539C38.9466 13.3539 39.8862 13.7431 40.579 14.4359C41.2718 15.1287 41.6611 16.0684 41.6611 17.0482C41.6611 18.0279 41.2718 18.9676 40.579 19.6604C39.8862 20.3532 38.9466 20.7424 37.9668 20.7424ZM73.3395 16.8372C73.3395 12.8067 69.9499 9.82612 66.0808 9.82612C62.6003 9.82612 59.5019 12.7613 59.5019 17.0468V28.5H62.757V22.3162C63.8421 23.3799 64.9679 23.8492 66.576 23.8492C70.2114 23.8492 73.3386 20.811 73.3386 16.8372M70.2569 16.7964C70.2569 17.7761 69.8677 18.7158 69.1748 19.4086C68.482 20.1014 67.5424 20.4906 66.5626 20.4906C65.5828 20.4906 64.6432 20.1014 63.9503 19.4086C63.2575 18.7158 62.8683 17.7761 62.8683 16.7964C62.8683 15.8166 63.2575 14.8769 63.9503 14.1841C64.6432 13.4913 65.5828 13.1021 66.5626 13.1021C67.5424 13.1021 68.482 13.4913 69.1748 14.1841C69.8677 14.8769 70.2569 15.8166 70.2569 16.7964Z" fill="#ACACAC"/>
<path id="Vector_2" d="M83.8246 9.54389V6.27299C84.2568 6.07098 84.6228 5.75035 84.8799 5.34844C85.137 4.94653 85.2747 4.47985 85.2769 4.00274V3.92763C85.2769 2.53654 84.1492 1.40884 82.7581 1.40884H82.683C82.0149 1.40884 81.3743 1.67421 80.9019 2.14657C80.4295 2.61894 80.1642 3.2596 80.1642 3.92763V4.00274C80.1664 4.47985 80.304 4.94653 80.5611 5.34844C80.8183 5.75035 81.1842 6.07098 81.6165 6.27299V9.54389C80.3742 9.73411 79.2042 10.2492 78.225 11.037L69.2543 4.05004C69.3183 3.81912 69.3516 3.58171 69.3554 3.34337C69.3565 2.78203 69.191 2.23297 68.8801 1.76564C68.5691 1.29832 68.1265 0.933721 67.6082 0.717973C67.09 0.502224 66.5194 0.445015 65.9687 0.553583C65.4179 0.662151 64.9117 0.931618 64.5142 1.3279C64.1166 1.72418 63.8454 2.22947 63.7351 2.77986C63.6247 3.33025 63.6801 3.901 63.8941 4.41993C64.1082 4.93886 64.4713 5.38265 64.9376 5.69517C65.4039 6.00768 65.9525 6.17488 66.5138 6.17561C67.0049 6.1733 67.4868 6.0422 67.9114 5.79539L76.7449 12.6692C75.9513 13.868 75.5373 15.278 75.5568 16.7156C75.5764 18.1531 76.0285 19.5514 76.8543 20.7282L74.1676 23.4158C73.9504 23.3463 73.7242 23.3094 73.4962 23.3063C73.0354 23.3067 72.5851 23.4436 72.2021 23.6999C71.8191 23.9561 71.5207 24.3201 71.3445 24.7459C71.1684 25.1716 71.1224 25.6401 71.2124 26.092C71.3023 26.5439 71.5243 26.959 71.8501 27.2848C72.1759 27.6106 72.591 27.8325 73.0429 27.9225C73.4948 28.0125 73.9633 27.9665 74.389 27.7903C74.8148 27.6142 75.1788 27.3158 75.435 26.9328C75.6913 26.5498 75.8282 26.0995 75.8286 25.6387C75.8256 25.4107 75.7887 25.1844 75.7192 24.9673L78.3771 22.3085C79.2438 22.9757 80.2518 23.4357 81.3237 23.6533C82.3957 23.8708 83.5033 23.8401 84.5615 23.5635C85.6198 23.2869 86.6007 22.7717 87.4292 22.0574C88.2576 21.3431 88.9115 20.4487 89.3408 19.4427C89.7702 18.4367 89.9636 17.3457 89.9061 16.2534C89.8487 15.1611 89.542 14.0964 89.0096 13.1409C88.4771 12.1854 87.733 11.3645 86.8343 10.741C85.9356 10.1175 84.906 9.70803 83.8246 9.54389ZM82.7229 20.3016C82.2316 20.3151 81.7427 20.23 81.2849 20.0514C80.8271 19.8727 80.4098 19.6042 80.0576 19.2615C79.7054 18.9188 79.4254 18.5091 79.2343 18.0564C79.0431 17.6037 78.9446 17.1173 78.9446 16.6259C78.9446 16.1345 79.0431 15.6481 79.2343 15.1954C79.4254 14.7427 79.7054 14.3329 80.0576 13.9903C80.4098 13.6476 80.8271 13.379 81.2849 13.2004C81.7427 13.0217 82.2316 12.9367 82.7229 12.9502C83.6749 12.9835 84.5769 13.385 85.2387 14.0702C85.9006 14.7553 86.2708 15.6705 86.2713 16.6232C86.2718 17.5758 85.9025 18.4914 85.2413 19.1772C84.5801 19.863 83.6786 20.2654 82.7266 20.2997" fill="#ACACAC"/>
</g>
</svg>
