<svg width="97" height="27" viewBox="0 0 97 27" fill="none" xmlns="http://www.w3.org/2000/svg">
<path id="Logo" d="M64.4751 0.5H60.4001V23.2906C64.1035 23.418 67.7913 23.6048 71.4642 23.8497V19.8345C69.1408 19.6795 66.8114 19.5481 64.4751 19.4394V0.5ZM96.8602 0.502305H92.3838L89.4331 7.34152L86.7822 0.502305H82.3729L87.1111 12.723L81.9389 24.712C83.3698 24.8515 84.7966 25.0005 86.2221 25.1578L89.2304 18.187L92.2095 25.8713C93.7611 26.0708 95.3086 26.279 96.8534 26.4995L96.8602 26.4968L91.5517 12.8056L96.8602 0.502305ZM46.4117 23.0914L50.4869 23.0905V13.82H56.0111V9.80469H50.4869V4.55391H57.7879V0.502509H46.4117V23.0914ZM31.1941 4.55364H35.4592V23.3302C36.8152 23.2789 38.174 23.2367 39.5342 23.2011V4.55364H43.7991V0.502305H31.1941V4.55364ZM17.2621 24.4972C21.0181 24.1558 24.7913 23.8745 28.5817 23.6562V19.6405C26.1599 19.7805 23.745 19.9462 21.3372 20.1356V14.0566C22.9171 14.0408 24.9975 13.9926 26.8405 14.0155V9.99993C25.3681 9.99634 23.0016 10.0205 21.3372 10.0418V4.55391H28.5817V0.502509H17.2621V24.4972ZM9.26836 15.2144L3.96081 0.502305H0.0878906V26.5C1.44365 26.307 2.80199 26.1222 4.16297 25.9449V11.8075L8.88229 25.3644C10.3666 25.1923 11.8536 25.0293 13.3435 24.876V0.502305H9.26836V15.2144ZM74.8237 24.0915C76.1841 24.1956 77.5424 24.3073 78.8994 24.428V0.502305H74.8237V24.0915Z" fill="#ACACAC"/>
</svg>
