<svg width="85" height="29" viewBox="0 0 85 29" fill="none" xmlns="http://www.w3.org/2000/svg">
<g id="Logo">
<g id="Group">
<path id="Vector" d="M-3.77539 23.2317V4.56506H7.61533V8.17797H0.54004V13.1959H7.61533V16.7586H0.54004V23.2317H-3.77539Z" fill="#ACACAC"/>
<path id="Vector_2" d="M10.4746 23.2315V10.3857H14.5391V13.0452C14.7399 12.1419 15.1915 11.3892 15.8438 10.8875C16.4961 10.3857 17.2488 10.1348 18.0517 10.1348C18.4531 10.1348 18.8546 10.1849 19.1055 10.2351V14.0487C18.6037 13.9986 18.2022 13.9484 17.9012 13.9484C15.6431 13.9484 14.5391 15.4036 14.5391 18.2136V23.1814H10.4746V23.2315Z" fill="#ACACAC"/>
<path id="Vector_3" d="M26.1329 23.5328C24.2762 23.5328 22.7708 22.8804 21.7171 21.626C20.6131 20.3715 20.1113 18.7156 20.1113 16.7586C20.1113 14.8016 20.6633 13.1958 21.7672 11.8912C22.8712 10.6367 24.3766 9.98438 26.183 9.98438C27.0863 9.98438 27.8891 10.1851 28.5916 10.5865C29.2942 10.988 29.8461 11.4898 30.1974 12.1923V10.3356H34.2619V23.1815H30.1974V21.3751C29.8461 22.0274 29.2942 22.5292 28.5415 22.9306C27.839 23.3822 27.0361 23.5328 26.1329 23.5328ZM27.287 20.1708C28.2404 20.1708 29.0433 19.8697 29.5451 19.2174C30.0468 18.565 30.3479 17.7622 30.3479 16.8087C30.3479 15.8553 30.097 15.0525 29.5451 14.4001C28.9931 13.7478 28.2404 13.4467 27.287 13.4467C26.3838 13.4467 25.6311 13.7478 25.0791 14.4001C24.5271 15.0023 24.226 15.8553 24.226 16.8087C24.226 17.8123 24.5271 18.6152 25.0791 19.2675C25.6311 19.8697 26.3838 20.1708 27.287 20.1708Z" fill="#ACACAC"/>
<path id="Vector_4" d="M37.623 23.2319V10.386H41.6876V12.2427C41.9887 11.5903 42.4403 11.0384 43.0926 10.6369C43.7449 10.2355 44.4976 10.0348 45.3507 10.0348C47.3579 10.0348 48.7127 10.8377 49.365 12.3932C49.7163 11.6907 50.2683 11.0886 50.9708 10.6871C51.7235 10.2355 52.5263 10.0348 53.4296 10.0348C56.4905 10.0348 57.9959 11.7911 57.9959 15.2534V23.2319H53.8812V16.0061C53.8812 14.3 53.2288 13.4972 51.9744 13.4972C50.5192 13.4972 49.8166 14.5509 49.8166 16.6584V23.2821H45.8023V15.9559C45.8023 14.3 45.15 13.447 43.8955 13.447C43.193 13.447 42.641 13.6979 42.2897 14.1495C41.9385 14.6011 41.7378 15.4541 41.7378 16.6083V23.2319H37.623Z" fill="#ACACAC"/>
<path id="Vector_5" d="M73.9521 16.1065C73.9521 16.6584 73.9019 17.2104 73.8518 17.9129H64.3679C64.418 18.766 64.6689 19.4183 65.2209 19.8699C65.7729 20.3215 66.4754 20.5724 67.3786 20.5724C68.6331 20.5724 69.436 20.171 69.7872 19.3681H73.8016C73.6009 20.6226 72.8984 21.6764 71.7442 22.4291C70.5399 23.2319 69.1349 23.6334 67.4288 23.6334C65.2209 23.6334 63.5148 23.0312 62.2603 21.8269C61.0058 20.6226 60.3535 18.9667 60.3535 16.809C60.3535 14.7015 61.0058 13.0455 62.2603 11.8412C63.5148 10.6369 65.2209 10.0348 67.2783 10.0348C69.2854 10.0348 70.8912 10.5868 72.1457 11.7409C73.2998 12.8448 73.9521 14.3 73.9521 16.1065ZM64.3177 15.3538H69.8876C69.8876 14.5007 69.6367 13.8484 69.1851 13.3968C68.7335 12.9452 68.0811 12.6943 67.1779 12.6943C66.3249 12.6943 65.6224 12.9452 65.1206 13.447C64.6188 13.9488 64.3679 14.6011 64.3177 15.3538Z" fill="#ACACAC"/>
<path id="Vector_6" d="M76.2598 23.2315V10.3857H80.3243V13.0452C80.525 12.1419 80.9766 11.3892 81.629 10.8875C82.2813 10.3857 83.034 10.1348 83.8369 10.1348C84.2383 10.1348 84.6397 10.1849 84.8906 10.2351V14.0487C84.3888 13.9986 83.9874 13.9484 83.6863 13.9484C81.4282 13.9484 80.3243 15.4036 80.3243 18.2136V23.1814H76.2598V23.2315Z" fill="#ACACAC"/>
</g>
</g>
</svg>
