<svg width="71" height="29" viewBox="0 0 71 29" fill="none" xmlns="http://www.w3.org/2000/svg">
<path id="Logo" fill-rule="evenodd" clip-rule="evenodd" d="M70.2899 14.984C70.2899 10.028 67.8893 6.11749 63.301 6.11749C58.6934 6.11749 55.9056 10.028 55.9056 14.9453C55.9056 20.7724 59.1967 23.715 63.9205 23.715C66.2243 23.715 67.9667 23.1923 69.2832 22.4566V18.5848C67.9667 19.243 66.4567 19.6495 64.54 19.6495C62.6621 19.6495 60.9972 18.9913 60.7842 16.7069H70.2512C70.2512 16.4553 70.2899 15.4486 70.2899 14.984ZM60.7262 13.1449C60.7262 10.9573 62.062 10.0474 63.2817 10.0474C64.4626 10.0474 65.721 10.9573 65.721 13.1449H60.7262ZM48.4327 6.11749C46.5355 6.11749 45.3158 7.00801 44.6382 7.6275L44.3865 6.42724H40.1274V29L44.9673 27.974L44.9867 22.4953C45.6836 22.9987 46.7097 23.715 48.4134 23.715C51.8788 23.715 55.0344 20.9272 55.0344 14.7904C55.015 9.17624 51.8207 6.11749 48.4327 6.11749ZM47.2711 19.4559C46.1289 19.4559 45.4513 19.0494 44.9867 18.5461L44.9673 11.3638C45.4707 10.8024 46.1676 10.4152 47.2711 10.4152C49.0329 10.4152 50.2525 12.3899 50.2525 14.9259C50.2525 17.52 49.0522 19.4559 47.2711 19.4559ZM33.4676 4.9753L38.3269 3.92991V0L33.4676 1.02603V4.9753ZM33.4676 6.4466H38.3269V23.3858H33.4676V6.4466ZM28.2598 7.87917L27.9501 6.4466H23.7684V23.3858H28.6083V11.9059C29.7505 10.4152 31.6865 10.6862 32.2867 10.8992V6.4466C31.6672 6.21429 29.4021 5.78838 28.2598 7.87917ZM18.58 2.24566L13.8562 3.25234L13.8368 18.759C13.8368 21.6242 15.9857 23.7343 18.851 23.7343C20.4385 23.7343 21.6001 23.4439 22.2389 23.0955V19.1656C21.6194 19.4172 18.5606 20.3077 18.5606 17.4426V10.5701H22.2389V6.4466H18.5606L18.58 2.24566ZM5.49275 11.3638C5.49275 10.6088 6.11226 10.3184 7.13833 10.3184C8.60967 10.3184 10.4682 10.7637 11.9396 11.5574V7.00801C10.3327 6.36916 8.74519 6.11749 7.13833 6.11749C3.2083 6.11749 0.594727 8.16956 0.594727 11.5961C0.594727 16.9393 7.95144 16.0875 7.95144 18.3912C7.95144 19.2817 7.17705 19.5721 6.0929 19.5721C4.48604 19.5721 2.4339 18.9139 0.807684 18.0234V22.6308C2.60814 23.4052 4.42796 23.7343 6.0929 23.7343C10.1197 23.7343 12.8882 21.7403 12.8882 18.275C12.8688 12.506 5.49275 13.532 5.49275 11.3638Z" fill="#ACACAC"/>
</svg>
