<svg width="35" height="32" viewBox="0 0 35 32" fill="none" xmlns="http://www.w3.org/2000/svg">
<path id="&#226;&#128;&#156;" d="M26.3916 -3.06213e-06C29.0345 -3.29318e-06 31.1489 0.987646 32.7346 2.96295C34.2449 5.01727 35 7.66419 35 10.9037C35 15.3284 33.8673 19.3185 31.6019 22.8741C29.2611 26.5086 25.712 29.5506 20.9547 32L19.7087 30.1037C21.9741 28.6815 24.0507 26.6667 25.9385 24.0593C27.7508 21.5309 28.657 18.963 28.657 16.3556C28.657 15.6444 28.4682 15.0519 28.0906 14.5778C27.7131 14.1827 27.1467 13.9852 26.3916 13.9852C24.5038 13.9852 22.918 13.2741 21.6343 11.8519C20.2751 10.5086 19.5955 8.84938 19.5955 6.87407C19.5955 4.89876 20.2751 3.2395 21.6343 1.89629C22.918 0.632093 24.5038 -2.89709e-06 26.3916 -3.06213e-06ZM6.79612 -1.34904e-06C9.43905 -1.58009e-06 11.5534 0.987648 13.1392 2.96295C14.6494 5.01728 15.4045 7.6642 15.4045 10.9037C15.4045 15.3284 14.2718 19.3185 12.0065 22.8741C9.66559 26.5086 6.11651 29.5506 1.35923 32L0.11327 30.1037C2.37864 28.6815 4.45523 26.6667 6.34304 24.0593C8.15534 21.5309 9.06149 18.963 9.06149 16.3556C9.06149 15.6444 8.87271 15.0519 8.49514 14.5778C8.11758 14.1827 7.55124 13.9852 6.79612 13.9852C4.90831 13.9852 3.32255 13.2741 2.03884 11.8519C0.679613 10.5086 1.79081e-06 8.84938 1.61812e-06 6.87407C1.44543e-06 4.89876 0.679613 3.2395 2.03883 1.89629C3.32255 0.632094 4.90831 -1.184e-06 6.79612 -1.34904e-06Z" fill="#EDEDFF"/>
</svg>
