<svg width="42" height="39" viewBox="0 0 42 39" fill="none" xmlns="http://www.w3.org/2000/svg">
<path d="M1.83736 2.08771C1.58499 2.08771 1.36802 1.99846 1.18643 1.81996C1.00485 1.63838 0.914062 1.41986 0.914062 1.16442C0.914062 0.91205 1.00485 0.696615 1.18643 0.518111C1.36802 0.336529 1.58499 0.245739 1.83736 0.245739C2.08973 0.245739 2.3067 0.336529 2.48828 0.518111C2.66986 0.696615 2.76065 0.91205 2.76065 1.16442C2.76065 1.33369 2.71757 1.48911 2.63139 1.63068C2.5483 1.76918 2.4375 1.87997 2.29901 1.96307C2.16051 2.04616 2.00663 2.08771 1.83736 2.08771ZM11.4071 2.08771C11.1547 2.08771 10.9377 1.99846 10.7562 1.81996C10.5746 1.63838 10.4838 1.41986 10.4838 1.16442C10.4838 0.91205 10.5746 0.696615 10.7562 0.518111C10.9377 0.336529 11.1547 0.245739 11.4071 0.245739C11.6595 0.245739 11.8764 0.336529 12.058 0.518111C12.2396 0.696615 12.3304 0.91205 12.3304 1.16442C12.3304 1.33369 12.2873 1.48911 12.2011 1.63068C12.118 1.76918 12.0072 1.87997 11.8687 1.96307C11.7302 2.04616 11.5764 2.08771 11.4071 2.08771ZM20.9768 2.08771C20.7244 2.08771 20.5075 1.99846 20.3259 1.81996C20.1443 1.63838 20.0535 1.41986 20.0535 1.16442C20.0535 0.91205 20.1443 0.696615 20.3259 0.518111C20.5075 0.336529 20.7244 0.245739 20.9768 0.245739C21.2292 0.245739 21.4462 0.336529 21.6277 0.518111C21.8093 0.696615 21.9001 0.91205 21.9001 1.16442C21.9001 1.33369 21.857 1.48911 21.7708 1.63068C21.6877 1.76918 21.577 1.87997 21.4385 1.96307C21.3 2.04616 21.1461 2.08771 20.9768 2.08771ZM30.5465 2.08771C30.2942 2.08771 30.0772 1.99846 29.8956 1.81996C29.714 1.63838 29.6232 1.41986 29.6232 1.16442C29.6232 0.91205 29.714 0.696615 29.8956 0.518111C30.0772 0.336529 30.2942 0.245739 30.5465 0.245739C30.7989 0.245739 31.0159 0.336529 31.1975 0.518111C31.379 0.696615 31.4698 0.91205 31.4698 1.16442C31.4698 1.33369 31.4267 1.48911 31.3406 1.63068C31.2575 1.76918 31.1467 1.87997 31.0082 1.96307C30.8697 2.04616 30.7158 2.08771 30.5465 2.08771ZM40.1163 2.08771C39.8639 2.08771 39.6469 1.99846 39.4653 1.81996C39.2838 1.63838 39.193 1.41986 39.193 1.16442C39.193 0.91205 39.2838 0.696615 39.4653 0.518111C39.6469 0.336529 39.8639 0.245739 40.1163 0.245739C40.3686 0.245739 40.5856 0.336529 40.7672 0.518111C40.9488 0.696615 41.0396 0.91205 41.0396 1.16442C41.0396 1.33369 40.9965 1.48911 40.9103 1.63068C40.8272 1.76918 40.7164 1.87997 40.5779 1.96307C40.4394 2.04616 40.2855 2.08771 40.1163 2.08771ZM1.83736 11.0877C1.58499 11.0877 1.36802 10.9985 1.18643 10.82C1.00485 10.6384 0.914062 10.4199 0.914062 10.1644C0.914062 9.91205 1.00485 9.69661 1.18643 9.51811C1.36802 9.33653 1.58499 9.24574 1.83736 9.24574C2.08973 9.24574 2.3067 9.33653 2.48828 9.51811C2.66986 9.69661 2.76065 9.91205 2.76065 10.1644C2.76065 10.3337 2.71757 10.4891 2.63139 10.6307C2.5483 10.7692 2.4375 10.88 2.29901 10.9631C2.16051 11.0462 2.00663 11.0877 1.83736 11.0877ZM11.4071 11.0877C11.1547 11.0877 10.9377 10.9985 10.7562 10.82C10.5746 10.6384 10.4838 10.4199 10.4838 10.1644C10.4838 9.91205 10.5746 9.69661 10.7562 9.51811C10.9377 9.33653 11.1547 9.24574 11.4071 9.24574C11.6595 9.24574 11.8764 9.33653 12.058 9.51811C12.2396 9.69661 12.3304 9.91205 12.3304 10.1644C12.3304 10.3337 12.2873 10.4891 12.2011 10.6307C12.118 10.7692 12.0072 10.88 11.8687 10.9631C11.7302 11.0462 11.5764 11.0877 11.4071 11.0877ZM20.9768 11.0877C20.7244 11.0877 20.5075 10.9985 20.3259 10.82C20.1443 10.6384 20.0535 10.4199 20.0535 10.1644C20.0535 9.91205 20.1443 9.69661 20.3259 9.51811C20.5075 9.33653 20.7244 9.24574 20.9768 9.24574C21.2292 9.24574 21.4462 9.33653 21.6277 9.51811C21.8093 9.69661 21.9001 9.91205 21.9001 10.1644C21.9001 10.3337 21.857 10.4891 21.7708 10.6307C21.6877 10.7692 21.577 10.88 21.4385 10.9631C21.3 11.0462 21.1461 11.0877 20.9768 11.0877ZM30.5465 11.0877C30.2942 11.0877 30.0772 10.9985 29.8956 10.82C29.714 10.6384 29.6232 10.4199 29.6232 10.1644C29.6232 9.91205 29.714 9.69661 29.8956 9.51811C30.0772 9.33653 30.2942 9.24574 30.5465 9.24574C30.7989 9.24574 31.0159 9.33653 31.1975 9.51811C31.379 9.69661 31.4698 9.91205 31.4698 10.1644C31.4698 10.3337 31.4267 10.4891 31.3406 10.6307C31.2575 10.7692 31.1467 10.88 31.0082 10.9631C30.8697 11.0462 30.7158 11.0877 30.5465 11.0877ZM40.1163 11.0877C39.8639 11.0877 39.6469 10.9985 39.4653 10.82C39.2838 10.6384 39.193 10.4199 39.193 10.1644C39.193 9.91205 39.2838 9.69661 39.4653 9.51811C39.6469 9.33653 39.8639 9.24574 40.1163 9.24574C40.3686 9.24574 40.5856 9.33653 40.7672 9.51811C40.9488 9.69661 41.0396 9.91205 41.0396 10.1644C41.0396 10.3337 40.9965 10.4891 40.9103 10.6307C40.8272 10.7692 40.7164 10.88 40.5779 10.9631C40.4394 11.0462 40.2855 11.0877 40.1163 11.0877ZM1.83736 20.0877C1.58499 20.0877 1.36802 19.9985 1.18643 19.82C1.00485 19.6384 0.914062 19.4199 0.914062 19.1644C0.914062 18.9121 1.00485 18.6966 1.18643 18.5181C1.36802 18.3365 1.58499 18.2457 1.83736 18.2457C2.08973 18.2457 2.3067 18.3365 2.48828 18.5181C2.66986 18.6966 2.76065 18.9121 2.76065 19.1644C2.76065 19.3337 2.71757 19.4891 2.63139 19.6307C2.5483 19.7692 2.4375 19.88 2.29901 19.9631C2.16051 20.0462 2.00663 20.0877 1.83736 20.0877ZM11.4071 20.0877C11.1547 20.0877 10.9377 19.9985 10.7562 19.82C10.5746 19.6384 10.4838 19.4199 10.4838 19.1644C10.4838 18.9121 10.5746 18.6966 10.7562 18.5181C10.9377 18.3365 11.1547 18.2457 11.4071 18.2457C11.6595 18.2457 11.8764 18.3365 12.058 18.5181C12.2396 18.6966 12.3304 18.9121 12.3304 19.1644C12.3304 19.3337 12.2873 19.4891 12.2011 19.6307C12.118 19.7692 12.0072 19.88 11.8687 19.9631C11.7302 20.0462 11.5764 20.0877 11.4071 20.0877ZM20.9768 20.0877C20.7244 20.0877 20.5075 19.9985 20.3259 19.82C20.1443 19.6384 20.0535 19.4199 20.0535 19.1644C20.0535 18.9121 20.1443 18.6966 20.3259 18.5181C20.5075 18.3365 20.7244 18.2457 20.9768 18.2457C21.2292 18.2457 21.4462 18.3365 21.6277 18.5181C21.8093 18.6966 21.9001 18.9121 21.9001 19.1644C21.9001 19.3337 21.857 19.4891 21.7708 19.6307C21.6877 19.7692 21.577 19.88 21.4385 19.9631C21.3 20.0462 21.1461 20.0877 20.9768 20.0877ZM30.5465 20.0877C30.2942 20.0877 30.0772 19.9985 29.8956 19.82C29.714 19.6384 29.6232 19.4199 29.6232 19.1644C29.6232 18.9121 29.714 18.6966 29.8956 18.5181C30.0772 18.3365 30.2942 18.2457 30.5465 18.2457C30.7989 18.2457 31.0159 18.3365 31.1975 18.5181C31.379 18.6966 31.4698 18.9121 31.4698 19.1644C31.4698 19.3337 31.4267 19.4891 31.3406 19.6307C31.2575 19.7692 31.1467 19.88 31.0082 19.9631C30.8697 20.0462 30.7158 20.0877 30.5465 20.0877ZM40.1163 20.0877C39.8639 20.0877 39.6469 19.9985 39.4653 19.82C39.2838 19.6384 39.193 19.4199 39.193 19.1644C39.193 18.9121 39.2838 18.6966 39.4653 18.5181C39.6469 18.3365 39.8639 18.2457 40.1163 18.2457C40.3686 18.2457 40.5856 18.3365 40.7672 18.5181C40.9488 18.6966 41.0396 18.9121 41.0396 19.1644C41.0396 19.3337 40.9965 19.4891 40.9103 19.6307C40.8272 19.7692 40.7164 19.88 40.5779 19.9631C40.4394 20.0462 40.2855 20.0877 40.1163 20.0877ZM1.83736 29.0877C1.58499 29.0877 1.36802 28.9985 1.18643 28.82C1.00485 28.6384 0.914062 28.4199 0.914062 28.1644C0.914062 27.9121 1.00485 27.6966 1.18643 27.5181C1.36802 27.3365 1.58499 27.2457 1.83736 27.2457C2.08973 27.2457 2.3067 27.3365 2.48828 27.5181C2.66986 27.6966 2.76065 27.9121 2.76065 28.1644C2.76065 28.3337 2.71757 28.4891 2.63139 28.6307C2.5483 28.7692 2.4375 28.88 2.29901 28.9631C2.16051 29.0462 2.00663 29.0877 1.83736 29.0877ZM11.4071 29.0877C11.1547 29.0877 10.9377 28.9985 10.7562 28.82C10.5746 28.6384 10.4838 28.4199 10.4838 28.1644C10.4838 27.9121 10.5746 27.6966 10.7562 27.5181C10.9377 27.3365 11.1547 27.2457 11.4071 27.2457C11.6595 27.2457 11.8764 27.3365 12.058 27.5181C12.2396 27.6966 12.3304 27.9121 12.3304 28.1644C12.3304 28.3337 12.2873 28.4891 12.2011 28.6307C12.118 28.7692 12.0072 28.88 11.8687 28.9631C11.7302 29.0462 11.5764 29.0877 11.4071 29.0877ZM20.9768 29.0877C20.7244 29.0877 20.5075 28.9985 20.3259 28.82C20.1443 28.6384 20.0535 28.4199 20.0535 28.1644C20.0535 27.9121 20.1443 27.6966 20.3259 27.5181C20.5075 27.3365 20.7244 27.2457 20.9768 27.2457C21.2292 27.2457 21.4462 27.3365 21.6277 27.5181C21.8093 27.6966 21.9001 27.9121 21.9001 28.1644C21.9001 28.3337 21.857 28.4891 21.7708 28.6307C21.6877 28.7692 21.577 28.88 21.4385 28.9631C21.3 29.0462 21.1461 29.0877 20.9768 29.0877ZM30.5465 29.0877C30.2942 29.0877 30.0772 28.9985 29.8956 28.82C29.714 28.6384 29.6232 28.4199 29.6232 28.1644C29.6232 27.9121 29.714 27.6966 29.8956 27.5181C30.0772 27.3365 30.2942 27.2457 30.5465 27.2457C30.7989 27.2457 31.0159 27.3365 31.1975 27.5181C31.379 27.6966 31.4698 27.9121 31.4698 28.1644C31.4698 28.3337 31.4267 28.4891 31.3406 28.6307C31.2575 28.7692 31.1467 28.88 31.0082 28.9631C30.8697 29.0462 30.7158 29.0877 30.5465 29.0877ZM40.1163 29.0877C39.8639 29.0877 39.6469 28.9985 39.4653 28.82C39.2838 28.6384 39.193 28.4199 39.193 28.1644C39.193 27.9121 39.2838 27.6966 39.4653 27.5181C39.6469 27.3365 39.8639 27.2457 40.1163 27.2457C40.3686 27.2457 40.5856 27.3365 40.7672 27.5181C40.9488 27.6966 41.0396 27.9121 41.0396 28.1644C41.0396 28.3337 40.9965 28.4891 40.9103 28.6307C40.8272 28.7692 40.7164 28.88 40.5779 28.9631C40.4394 29.0462 40.2855 29.0877 40.1163 29.0877ZM1.83736 38.0877C1.58499 38.0877 1.36802 37.9985 1.18643 37.82C1.00485 37.6384 0.914062 37.4199 0.914062 37.1644C0.914062 36.9121 1.00485 36.6966 1.18643 36.5181C1.36802 36.3365 1.58499 36.2457 1.83736 36.2457C2.08973 36.2457 2.3067 36.3365 2.48828 36.5181C2.66986 36.6966 2.76065 36.9121 2.76065 37.1644C2.76065 37.3337 2.71757 37.4891 2.63139 37.6307C2.5483 37.7692 2.4375 37.88 2.29901 37.9631C2.16051 38.0462 2.00663 38.0877 1.83736 38.0877ZM11.4071 38.0877C11.1547 38.0877 10.9377 37.9985 10.7562 37.82C10.5746 37.6384 10.4838 37.4199 10.4838 37.1644C10.4838 36.9121 10.5746 36.6966 10.7562 36.5181C10.9377 36.3365 11.1547 36.2457 11.4071 36.2457C11.6595 36.2457 11.8764 36.3365 12.058 36.5181C12.2396 36.6966 12.3304 36.9121 12.3304 37.1644C12.3304 37.3337 12.2873 37.4891 12.2011 37.6307C12.118 37.7692 12.0072 37.88 11.8687 37.9631C11.7302 38.0462 11.5764 38.0877 11.4071 38.0877ZM20.9768 38.0877C20.7244 38.0877 20.5075 37.9985 20.3259 37.82C20.1443 37.6384 20.0535 37.4199 20.0535 37.1644C20.0535 36.9121 20.1443 36.6966 20.3259 36.5181C20.5075 36.3365 20.7244 36.2457 20.9768 36.2457C21.2292 36.2457 21.4462 36.3365 21.6277 36.5181C21.8093 36.6966 21.9001 36.9121 21.9001 37.1644C21.9001 37.3337 21.857 37.4891 21.7708 37.6307C21.6877 37.7692 21.577 37.88 21.4385 37.9631C21.3 38.0462 21.1461 38.0877 20.9768 38.0877ZM30.5465 38.0877C30.2942 38.0877 30.0772 37.9985 29.8956 37.82C29.714 37.6384 29.6232 37.4199 29.6232 37.1644C29.6232 36.9121 29.714 36.6966 29.8956 36.5181C30.0772 36.3365 30.2942 36.2457 30.5465 36.2457C30.7989 36.2457 31.0159 36.3365 31.1975 36.5181C31.379 36.6966 31.4698 36.9121 31.4698 37.1644C31.4698 37.3337 31.4267 37.4891 31.3406 37.6307C31.2575 37.7692 31.1467 37.88 31.0082 37.9631C30.8697 38.0462 30.7158 38.0877 30.5465 38.0877ZM40.1163 38.0877C39.8639 38.0877 39.6469 37.9985 39.4653 37.82C39.2838 37.6384 39.193 37.4199 39.193 37.1644C39.193 36.9121 39.2838 36.6966 39.4653 36.5181C39.6469 36.3365 39.8639 36.2457 40.1163 36.2457C40.3686 36.2457 40.5856 36.3365 40.7672 36.5181C40.9488 36.6966 41.0396 36.9121 41.0396 37.1644C41.0396 37.3337 40.9965 37.4891 40.9103 37.6307C40.8272 37.7692 40.7164 37.88 40.5779 37.9631C40.4394 38.0462 40.2855 38.0877 40.1163 38.0877Z" fill="black"/>
</svg>
