<svg width="58" height="58" viewBox="0 0 58 58" fill="none" xmlns="http://www.w3.org/2000/svg">
<g filter="url(#filter0_d_2499_16002)">
<rect x="4" width="50" height="50" rx="25" fill="#E1F083" shape-rendering="crispEdges"/>
<circle cx="29" cy="25" r="16" fill="white"/>
<path d="M21 30.125V18.875C21 18.3777 21.2469 17.9008 21.6865 17.5492C22.126 17.1975 22.7221 17 23.3438 17H35.0625C35.3111 17 35.5496 17.079 35.7254 17.2197C35.9012 17.3603 36 17.5511 36 17.75V31.25C36 31.4489 35.9012 31.6397 35.7254 31.7803C35.5496 31.921 35.3111 32 35.0625 32H23.3438C22.7221 32 22.126 31.8025 21.6865 31.4508C21.2469 31.0992 21 30.6223 21 30.125ZM21 30.125C21 29.6277 21.2469 29.1508 21.6865 28.7992C22.126 28.4475 22.7221 28.25 23.3438 28.25H36M25.6875 22.625L27.5625 24.125L31.3125 21.125" stroke="#3D568F" stroke-linecap="round" stroke-linejoin="round"/>
</g>
<defs>
<filter id="filter0_d_2499_16002" x="0" y="0" width="58" height="58" filterUnits="userSpaceOnUse" color-interpolation-filters="sRGB">
<feFlood flood-opacity="0" result="BackgroundImageFix"/>
<feColorMatrix in="SourceAlpha" type="matrix" values="0 0 0 0 0 0 0 0 0 0 0 0 0 0 0 0 0 0 127 0" result="hardAlpha"/>
<feOffset dy="4"/>
<feGaussianBlur stdDeviation="2"/>
<feComposite in2="hardAlpha" operator="out"/>
<feColorMatrix type="matrix" values="0 0 0 0 0 0 0 0 0 0 0 0 0 0 0 0 0 0 0.25 0"/>
<feBlend mode="normal" in2="BackgroundImageFix" result="effect1_dropShadow_2499_16002"/>
<feBlend mode="normal" in="SourceGraphic" in2="effect1_dropShadow_2499_16002" result="shape"/>
</filter>
</defs>
</svg>
