<svg width="58" height="58" viewBox="0 0 58 58" fill="none" xmlns="http://www.w3.org/2000/svg">
<g filter="url(#filter0_d_2499_15992)">
<rect x="4" width="50" height="50" rx="25" fill="#7B9BDB" shape-rendering="crispEdges"/>
<circle cx="29" cy="25" r="16" fill="white"/>
<path d="M27.9 29.3612L30.1 31.1271C30.3167 31.301 30.5739 31.4389 30.857 31.5331C31.1401 31.6272 31.4436 31.6756 31.75 31.6756C32.0564 31.6756 32.3599 31.6272 32.643 31.5331C32.9261 31.4389 33.1833 31.301 33.4 31.1271C33.6167 30.9531 33.7886 30.7467 33.9058 30.5194C34.0231 30.2922 34.0835 30.0486 34.0835 29.8027C34.0835 29.5567 34.0231 29.3132 33.9058 29.0859C33.7886 28.8587 33.6167 28.6522 33.4 28.4783M31.2 26.7125L33.95 28.9198C34.3876 29.271 34.9811 29.4683 35.6 29.4683C36.2189 29.4683 36.8124 29.271 37.25 28.9198C37.6876 28.5685 37.9335 28.0921 37.9335 27.5954C37.9335 27.0987 37.6876 26.6223 37.25 26.271L32.982 22.8453C32.3632 22.3493 31.5245 22.0707 30.65 22.0707C29.7755 22.0707 28.9368 22.3493 28.318 22.8453L27.35 23.6223C26.9124 23.9735 26.3189 24.1709 25.7 24.1709C25.0811 24.1709 24.4876 23.9735 24.05 23.6223C23.6124 23.271 23.3665 22.7947 23.3665 22.2979C23.3665 21.8012 23.6124 21.3248 24.05 20.9736L27.141 18.4926C28.1445 17.6892 29.4531 17.1775 30.8597 17.0384C32.2663 16.8993 33.6906 17.1407 34.907 17.7244L35.424 17.9716C35.8924 18.1985 36.4493 18.2772 36.986 18.1924L38.9 17.8834M38.9 17.0004L40 26.7125H37.8M19.1 17.0004L18 26.7125L25.15 32.4514C25.5876 32.8027 26.1811 33 26.8 33C27.4189 33 28.0124 32.8027 28.45 32.4514C28.8876 32.1002 29.1335 31.6238 29.1335 31.1271C29.1335 30.6303 28.8876 30.1539 28.45 29.8027M19.1 17.8834H27.9" stroke="#3D568F" stroke-linecap="round" stroke-linejoin="round"/>
</g>
<defs>
<filter id="filter0_d_2499_15992" x="0" y="0" width="58" height="58" filterUnits="userSpaceOnUse" color-interpolation-filters="sRGB">
<feFlood flood-opacity="0" result="BackgroundImageFix"/>
<feColorMatrix in="SourceAlpha" type="matrix" values="0 0 0 0 0 0 0 0 0 0 0 0 0 0 0 0 0 0 127 0" result="hardAlpha"/>
<feOffset dy="4"/>
<feGaussianBlur stdDeviation="2"/>
<feComposite in2="hardAlpha" operator="out"/>
<feColorMatrix type="matrix" values="0 0 0 0 0 0 0 0 0 0 0 0 0 0 0 0 0 0 0.25 0"/>
<feBlend mode="normal" in2="BackgroundImageFix" result="effect1_dropShadow_2499_15992"/>
<feBlend mode="normal" in="SourceGraphic" in2="effect1_dropShadow_2499_15992" result="shape"/>
</filter>
</defs>
</svg>
