<?xml version="1.0"?><svg version="1.2" baseProfile="tiny-ps" viewBox="0 0 300 300" xmlns="http://www.w3.org/2000/svg" xmlns:xlink="http://www.w3.org/1999/xlink"><title>Distance Connect</title>
<desc>Official logo of Distance Connect, a career guidance and mentorship platform for engineering students in India.</desc>


<g><g fill="#fcfdfd" transform="matrix(.1 0 0 -.1 0 300)"><path d="M0 1500V0h3000v3000H0V1500z"/></g><g fill="#d0d4db" transform="matrix(.1 0 0 -.1 0 300)"><path d="M74 2051c-12-5-29-20-38-33l-16-22v-123l21-27 20-26h147l26 31 26 31v108l-28 31-29 32-54 3-54 4-21-9zm256-21-11-20 3-88 3-87 66-6c36-3 80-11 97-18l31-13 21-42 20-42v-469l-20-43-19-43-43-19-43-20H301l-15 16-16 15v568l-16 15-15 16H55l-15-10-15-9 1-368V995l15-30 14-30 35-18 35-18 205 3 205 3 67 33 66 32 40 42 40 41 28 56 29 56 3 233 4 232-12 86-11 87-24 46c-13 25-40 66-61 90l-38 44-51 22c-65 29-142 45-215 45h-59l-11-20zm532-172c-7-7-12-22-12-34v-22l14-11 15-12 33 3 33 3 3 28 3 28-12 15-11 14h-54l-12-12zm425-45c-4-3-7-19-7-34v-28l-22-3-23-3v-70l23-3 22-3v-150l25-24 24-25h102l-3 38-3 37-25 4c-33 4-40 17-40 74v47h68l5 33 4 32-11 7c-6 4-23 8-38 8h-28v70h-33c-19 0-37-3-40-7zm-234-64-32-9-20-26-21-27v-45l18-20c17-19 52-35 105-46l27-6v-30h-61l-5 15-6 15h-77l-6-9-5-10 12-26 12-26 26-14c14-7 42-16 62-20l37-7 35 12 36 12 15 21 15 21v66l-19 19-19 19-56 16-56 17v19h22c12 0 29-6 37-14l16-14 33 5 32 5v13c0 7-9 24-20 38l-21 26-37 11c-20 5-39 10-42 9-3 0-19-5-37-10zm477-4c-39-18-69-51-70-78v-17l30-7 31-6-23-11-23-12-13-28-14-27 6-25c8-32 39-62 73-70l27-7 43 15 42 15 9-9 10-10 28 4 29 3 3 80 3 80-11 37-11 37-28 20-28 20-39 6-39 5-35-15zm88-77c20-20 14-25-40-27l-52-1 24 20c26 23 50 26 68 8zm2-96c0-15-24-32-47-32h-23v13c0 8 3 17 7 20 9 10 63 9 63-1zm246 172-28-16-11 11c-6 6-24 11-39 11h-28v-281l38 3 37 3 3 70c1 39 4 80 7 93l6 23 26 10 26 10 18-17 18-16 3-87 3-86h80l3 93 3 92-16 33c-18 38-40 54-86 61l-34 6-29-16zm574-6-45-23-18-35-18-35 4-53 4-52 24-26c28-31 77-54 114-54 53 0 124 53 125 93v17h-78l-12-15-12-15h-22c-24 1-56 22-56 39v11h190v71l-16 30-15 31-42 19c-54 24-73 24-127-3zm100-73 12-15h-53l-54 1 19 14c11 8 30 15 42 15h22l12-15zm-1673 78c-4-3-7-67-7-140v-134l43 3 42 3v250l-9 13-8 12h-28c-14 0-30-3-33-7zm1251-10-26-17-21-37-21-37v-64l16-34 16-34 32-19c17-10 44-21 59-25l28-7 39 11 39 10 25 31 26 31v38h-72l-25-20c-14-11-32-20-39-20-8 0-23 9-34 20l-20 20v57l18 15c9 8 25 18 35 21l17 7 20-20 19-19 35-3c20-1 39 1 43 5l7 7-10 27-9 27-34 23-34 23h-51l-51-1-27-16zM940 1408l-45-24-24-48-24-48v-52c0-29 6-68 12-88l12-37 38-34 39-35 42-7 42-7 43 6 44 7 25 20c28 22 56 69 56 94v15h-79l-13-18c-7-11-24-24-37-31l-23-13-33 6-32 6-18 20-18 20-5 55-4 55 12 29 12 30 30 10c17 6 41 11 54 11h23l23-30 22-30h86v18c0 25-35 78-65 98l-25 16-63 5-62 5-45-24zm1867-24c-4-4-7-18-7-31v-23l-25-12-25-11v-65l20-5 20-5v-44c0-23 5-61 10-83l9-39 18-14 18-13 50 3 50 3v59l-33 8-33 9 3 57 3 57 30 5 30 5 3 33 3 32-18 1c-10 1-25 2-33 3l-15 1-5 35-5 35-30 3c-17 2-34 0-38-4zm-1512-83c-37-22-60-55-68-97l-6-32 10-38 11-38 29-27 29-27 40-7 40-7 33 11 34 11 29 31 29 30v130l-42 40-42 39h-96l-30-19zm107-78 18-16v-64l-20-18-19-17-26 6-26 7-10 26-10 26 6 18c15 47 55 61 87 32zm240 81-22-15v21h-80v-271l43 3 42 3 5 88 5 88 15 9c8 5 24 10 36 10h21l11-25 12-26v-150l43 3 42 3 3 35c2 19 1 69-3 109l-7 75-30 28-30 28h-84l-22-16zm310 0-22-15v21h-80v-271l43 3 42 3 5 88 5 88 15 9c8 5 24 10 34 10h19l13-17 13-18 1-83v-83l43 3 42 3 3 45c2 25 1 73-3 108l-7 62-30 30-30 30h-84l-22-16zm263-4-30-20-17-32-18-33v-87l16-26c9-15 27-35 41-46l25-19 42-4 42-5 36 15 36 15 17 26 17 26-6 15-5 15h-63l-25-20-25-19-29 15c-16 8-29 19-29 24v10h179l10 18 10 19-11 37-12 37-33 30-34 29h-104l-30-20zm120-70 6-10h-106l15 10c8 5 29 10 47 10h32l6-10zm184 67-34-22-17-35-18-35v-70l20-32c25-42 57-62 111-68l44-6 34 18c19 10 43 30 54 45l20 26-6 16-6 16h-68l-18-20-18-20h-46l-15 22c-9 12-16 32-16 43s7 31 16 43l15 22h46l23-20 23-20h58l6 16 6 15-14 26c-8 15-27 35-44 45l-30 18h-92l-34-23z"/></g><g fill="#a1bbef" transform="matrix(.1 0 0 -.1 0 300)"><path d="m57 2030-26-21-7-34-6-35 7-36 6-36 24-24 24-24h113l29 29 29 29v120l-31 26-31 26H83l-26-20zm285-3-13-15 3-84 3-83 35-2c19-2 58-8 86-13l51-11 21-22c11-12 25-40 31-62l11-40v-425l-12-46-13-46-33-29-33-29-27-2c-15-1-54-2-87-3l-60-3-22 14-23 14v579l-19 11-20 10H51l-12-21-11-22 4-351 3-351 19-32 19-31 24-11 24-11h364l51 14c108 29 186 94 233 196l25 55 4 165 4 165-10 140-9 140-23 53-23 52-57 53-57 53-54 18-54 17-80 6-80 6-13-16zm536-168-18-10v-47l15-12 15-12 24 6 24 6 5 21 6 20-20 20c-22 22-27 22-51 8zm418-51c-2-7-7-25-10-40l-6-28h-40v-60h40v-117l11-32 11-31 18-10c10-6 40-10 65-10h46l-3 27-3 28-30 5-30 5-3 68-3 67h71v60h-69l-3 38-3 37-28 3-27 3-4-13zm-246-65c-8-3-25-15-37-26l-23-20v-67l33-20c17-11 41-20 52-20s31-7 43-16l23-16-12-14c-16-20-42-17-69 6l-23 20h-23c-13 0-26-5-30-11l-6-11 12-24 13-23 32-16 33-15h89l27 25 26 24v33c0 47-10 57-81 82-35 13-65 28-67 34l-3 10 21 7 21 7 24-16c13-9 36-16 50-16h25v14c0 8-10 26-22 41l-23 25-45 5c-25 2-52 2-60-2zm475-9c-36-19-55-42-55-66v-18h68l6 16 6 15 37-3 38-3 3-16 3-16-63-6-63-7-22-25-23-26v-60l25-24 24-25h87l24 17 24 17 4-12 4-12h58v185l-13 25-12 25-35 17-35 18h-30c-16-1-43-8-60-16zm105-158c0-18-38-46-63-46h-18l-6 16-6 17 18 13 19 14h56v-14zm250 167c-8-3-23-12-32-21l-18-15v33h-70v-258l12-4c7-3 23-2 35 0l23 4v52c0 28 5 69 10 90l9 39 13 8c7 5 23 9 35 9h22l15-22 16-22v-156h70v189l-12 26-12 26-27 15c-28 14-62 17-89 7zm255-13-41-20-17-29-17-29v-87l20-32 19-32 37-16c20-8 51-15 69-15h32l33 23c18 12 38 29 43 38l10 16-6 17-6 16h-19c-11 0-31-9-45-20l-25-20h-51l-15 16-16 15v76l18 16 19 17h50l18-20 18-20h57v47l-23 21c-23 22-75 42-107 42-8 0-33-9-55-20zm308 5-33-14-20-33-20-33v-108l40-39 41-38h81l34 16 35 17 15 28 14 29-25 6-25 6-12-6c-7-4-24-13-37-21l-24-13-26 9c-24 10-41 26-41 41v7l98 3 97 3-1 36-1 35-19 28-18 29-33 13c-41 18-79 17-120-1zm106-68 11-14-7-6c-3-4-28-7-55-7h-48v14c0 17 15 24 56 25l32 1 11-13zm-1689-57v-130h80v260h-80v-130zm113-191-33-10-33-33-34-33-13-47-13-46 5-43c3-23 12-58 22-77l16-35 36-24 36-25 59-4 59-4 30 12c17 7 42 26 55 42l25 30v38h-67l-23-25-23-25h-39c-50 0-74 13-93 50l-15 29v93l21 29 20 28 39 12 39 12 25-17c14-9 30-25 36-36l11-20h72l-7 32c-11 57-58 92-136 102l-45 5-32-10zm1834-46c-4-3-7-19-7-35v-28h-19c-11 0-23-5-26-11l-7-10 6-25 6-24h40v-146l20-22 20-21 35-7c19-3 42-4 50 0l15 5v61h-58l-6 16c-3 9-6 37-6 64v49l33 3 32 3 3 32 3 32-33 3-33 3-3 33-3 32h-28c-15 0-31-3-34-7zm-1530-96-35-33-8-39-7-39 14-40 14-39 28-21 28-21h121l34 37 34 38v112l-39 39-39 39h-111l-34-33zm128-52 25-24v-48l-21-27-20-26h-39l-20 20-20 20v70l20 20c26 26 46 25 75-5zm145-51v-135l33 3 32 3 5 89 6 88 19 14c22 16 44 18 65 4l15-9 5-93 5-93h70l3 75c2 41 0 90-3 109l-6 33-24 24-24 24h-87l-22-16-22-15-6 15-6 16h-58v-136zm310 0v-135l33 3 32 3 5 87 5 87 10 10c6 5 21 12 35 15l25 6 15-10 15-9 5-93 5-93h70l3 75c2 41 0 90-3 109l-6 33-24 24-24 24h-87l-22-16-22-15-6 15-6 16h-58v-136zm354 116-32-21-13-31c-16-38-15-89 1-128l12-30 33-20 32-20h84l29 15c28 15 50 42 50 64v11h-68l-12-15-12-15h-48l-20 20-21 21 6 9 6 10h180l5 15 6 14-12 35-11 35-30 26-31 25h-103l-31-20zm117-50c10-6 19-15 19-20v-10h-110v8c0 29 54 41 91 22zm168 31-39-39v-109l21-27c11-14 34-33 49-41l29-15h90l36 31 35 31v38h-61l-29-22-30-21-25 11-25 12-10 26-10 25 6 25 6 25 23 15 23 15 25-6 26-7 5-14 5-14h71v16c0 26-19 53-50 69l-29 15h-103l-39-39z"/></g><g fill="#9a9b9c" transform="matrix(.1 0 0 -.1 0 300)"><path d="m62 2025-32-27v-126l18-22 19-23 67-1 68-1 24 28 24 28v108l-23 27-24 27-54 5-55 4-32-27zm816-166-18-10v-47l15-12 15-12 24 6 24 6 5 21 6 20-20 20c-22 22-27 22-51 8zm418-51c-2-7-7-25-10-40l-6-28h-40v-60h40v-117l11-32 11-31 18-10c10-6 40-10 65-10h46l-3 27-3 28-30 5-30 5-3 68-3 67h71v60h-69l-3 38-3 37-28 3-27 3-4-13zm-246-65c-8-3-25-15-37-26l-23-20v-67l33-20c17-11 41-20 52-20s31-7 43-16l23-16-12-14c-16-20-42-17-69 6l-23 20h-23c-13 0-26-5-30-11l-6-11 12-24 13-23 32-16 33-15h89l27 25 26 24v33c0 47-10 57-81 82-35 13-65 28-67 34l-3 10 21 7 21 7 24-16c13-9 36-16 50-16h25v14c0 8-10 26-22 41l-23 25-45 5c-25 2-52 2-60-2zm475-9c-36-19-55-42-55-66v-18h68l6 16 6 15 37-3 38-3 3-16 3-16-63-6-63-7-22-25-23-26v-60l25-24 24-25h87l24 17 24 17 4-12 4-12h58v185l-13 25-12 25-35 17-35 18h-30c-16-1-43-8-60-16zm105-158c0-18-38-46-63-46h-18l-6 16-6 17 18 13 19 14h56v-14zm250 167c-8-3-23-12-32-21l-18-15v33h-70v-258l12-4c7-3 23-2 35 0l23 4v52c0 28 5 69 10 90l9 39 13 8c7 5 23 9 35 9h22l15-22 16-22v-156h70v189l-12 26-12 26-27 15c-28 14-62 17-89 7zm255-13-41-20-17-29-17-29v-87l20-32 19-32 37-16c20-8 51-15 69-15h32l33 23c18 12 38 29 43 38l10 16-6 17-6 16h-19c-11 0-31-9-45-20l-25-20h-51l-15 16-16 15v76l18 16 19 17h50l18-20 18-20h57v47l-23 21c-23 22-75 42-107 42-8 0-33-9-55-20zm308 5-33-14-20-33-20-33v-108l40-39 41-38h81l34 16 35 17 15 28 14 29-25 6-25 6-12-6c-7-4-24-13-37-21l-24-13-26 9c-24 10-41 26-41 41v7l98 3 97 3-1 36-1 35-19 28-18 29-33 13c-41 18-79 17-120-1zm106-68 11-14-7-6c-3-4-28-7-55-7h-48v14c0 17 15 24 56 25l32 1 11-13zm-1689-57v-130h80v260h-80v-130zm113-191-33-10-33-33-34-33-13-47-13-46 5-43c3-23 12-58 22-77l16-35 36-24 36-25 59-4 59-4 30 12c17 7 42 26 55 42l25 30v38h-67l-23-25-23-25h-39c-50 0-74 13-93 50l-15 29v93l21 29 20 28 39 12 39 12 25-17c14-9 30-25 36-36l11-20h72l-7 32c-11 57-58 92-136 102l-45 5-32-10zm1834-46c-4-3-7-19-7-35v-28h-19c-11 0-23-5-26-11l-7-10 6-25 6-24h40v-146l20-22 20-21 35-7c19-3 42-4 50 0l15 5v61h-58l-6 16c-3 9-6 37-6 64v49l33 3 32 3 3 32 3 32-33 3-33 3-3 33-3 32h-28c-15 0-31-3-34-7zm-1530-96-35-33-8-39-7-39 14-40 14-39 28-21 28-21h121l34 37 34 38v112l-39 39-39 39h-111l-34-33zm128-52 25-24v-48l-21-27-20-26h-39l-20 20-20 20v70l20 20c26 26 46 25 75-5zm145-51v-135l33 3 32 3 5 89 6 88 19 14c22 16 44 18 65 4l15-9 5-93 5-93h70l3 75c2 41 0 90-3 109l-6 33-24 24-24 24h-87l-22-16-22-15-6 15-6 16h-58v-136zm310 0v-135l33 3 32 3 5 87 5 87 10 10c6 5 21 12 35 15l25 6 15-10 15-9 5-93 5-93h70l3 75c2 41 0 90-3 109l-6 33-24 24-24 24h-87l-22-16-22-15-6 15-6 16h-58v-136zm354 116-32-21-13-31c-16-38-15-89 1-128l12-30 33-20 32-20h84l29 15c28 15 50 42 50 64v11h-68l-12-15-12-15h-48l-20 20-21 21 6 9 6 10h180l5 15 6 14-12 35-11 35-30 26-31 25h-103l-31-20zm117-50c10-6 19-15 19-20v-10h-110v8c0 29 54 41 91 22zm168 31-39-39v-109l21-27c11-14 34-33 49-41l29-15h90l36 31 35 31v38h-61l-29-22-30-21-25 11-25 12-10 26-10 25 6 25 6 25 23 15 23 15 25-6 26-7 5-14 5-14h71v16c0 26-19 53-50 69l-29 15h-103l-39-39z"/></g><g fill="#525765" transform="matrix(.1 0 0 -.1 0 300)"><path d="M74 2028c-56-27-59-143-5-185l16-12 51-1h52l23 19 23 18 6 49 6 49-13 27c-7 15-22 32-32 38l-20 10-43-1c-24 0-53-5-64-11zm797-182-13-15 7-21 6-20h60l6 16 6 17-10 16c-5 9-19 17-30 19l-20 3-12-15zm426-43c-4-3-7-19-7-34v-28l-22-3-23-3v-50l23-3 22-3v-150l25-24 24-25h82l-3 28-3 27-27 3-28 3-6 23c-3 12-4 42-2 67l3 44 33 3 32 3v58l-32 3-33 3-3 33-3 32h-23c-12 0-26-3-29-7zm-427-193v-130h60v260h-60v-130zm149 102-32-29 7-27 7-27 32-19 32-20h53l12-15 12-15-6-15-5-15h-59l-12 15-12 15h-58v-9c0-48 55-76 143-72l28 1 24 25 25 24v51l-19 19-19 19-57 16-56 17 3 17 3 17 29 3 29 4 7-12 7-11 34 3 34 3-32 33-31 32h-92l-31-28zm499 12c-15-8-32-23-38-34l-11-20 6-10c3-6 16-10 28-10h23l17 20 17 20h21c11 0 29-5 40-10l19-11v-37l-65-4-65-4-20-19c-10-11-22-31-25-45l-6-26 21-27 21-27h107l12 15c16 19 30 19 30-1v-15l28 3 27 3-1 99v99l-32 28-32 29h-48l-47-1-27-15zm122-142c0-4-7-18-16-30l-15-22h-70l-5 15-6 15 12 15 12 15h88v-8zm124 145c-2-7-3-65-2-128l3-114 33-3 32-3v162l25 24 24 25h38l16-18 17-19v-173h70v155l-10 37-11 37-22 16-21 15h-72l-23-17-24-16-12 16-12 17h-44l-5-13zm354-12-37-25-11-40-11-40 11-38 10-38 25-24 25-24 60-4 60-4 36 36 35 35-6 11c-10 16-45 12-72-10l-26-20h-21c-38 0-66 36-66 85v26l25 24 24 25h41l20-20 20-20h24c14 0 28 5 31 10l6 11-34 34-35 35h-97l-37-25zm308 4c-14-11-34-35-42-52l-16-30 5-46 5-45 37-34 37-34 61 4 60 4 24 28c12 15 23 31 23 37v9h-27l-28-1-19-14c-25-19-56-19-84 1l-22 15v39h190v55l-20 33-20 32-26 10c-14 6-45 10-68 10h-43l-27-21zm115-39 19-11v-29h-60c-33 0-60 3-60 7 0 3 7 15 17 25l16 18h24c13 0 33-5 44-10zM970 1413c-8-3-27-15-43-25l-27-20-20-38-20-39v-116l19-41 19-41 34-21c19-12 52-24 74-28l40-6 40 11 40 11 26 27c15 16 28 37 30 48l3 20-28 3-28 3-20-25-19-24-30-7-30-7-36 12-36 12-19 42c-10 22-19 55-19 71v30l18 35 17 35 25 12c14 7 40 13 58 13h34l28-30 28-30h62v9c0 4-10 23-23 42l-22 34-35 17-35 18-45-1c-25 0-52-3-60-6zm1847-40c-2-4-7-20-11-34l-6-27-20-5-20-5v-52h40v-117l11-32 11-31 18-10c10-6 37-10 59-10h41v50h-19c-11 0-26 3-35 6l-16 6v138h71l-3 28-3 27-32 3-32 3-3 32-3 32-22 3c-11 2-23 0-26-5zm-1513-82c-18-11-39-30-48-42l-16-23v-108l33-32 32-33 38-7 38-7 44 21 43 21 16 33c20 43 20 79 0 122l-16 34-33 20-32 20h-68l-31-19zm110-63 16-22v-62l-16-22-15-22h-27c-33 0-45 8-61 37-16 32-14 57 10 87l20 26h58l15-22zm143 75c-4-3-7-62-7-130v-124l33 3 32 3 3 80 3 79 16 18 16 18h56l15-22 16-22v-156h60v202l-29 29-29 29h-69l-26-20c-30-24-37-25-37-6 0 20-39 34-53 19zm310 0c-4-3-7-62-7-130v-124l33 3 32 3 3 80 3 80 16 18 16 17h56l15-22 16-22v-156h60v181l-15 29c-18 35-43 50-83 50h-29l-26-20c-30-24-37-25-37-6 0 20-39 34-53 19zm356-13-32-19-16-30-15-30v-78l23-34 22-33 37-14 37-14 37 7 37 6 29 30 29 29-6 10c-3 5-17 10-29 10h-24l-12-15-12-15h-67l-16 16-16 16 3 17 3 16 75 2c41 0 83 2 93 2l17 1v26c0 35-27 78-60 98l-28 16h-77l-32-20zm101-40 26-10v-30h-122l4 13c4 11 45 37 60 37 4 0 18-4 32-10zm188 23-41-38-6-40-5-40 17-34c10-19 30-43 45-54l27-20 44-1 44-1 27 15 28 14 13 27 14 26-6 7c-4 3-16 6-28 6h-22l-18-20-18-20h-66l-15 22-16 22v66l20 20 20 20h52l25-20c28-22 41-24 62-11l13 8-12 22c-6 12-26 31-43 41l-32 20h-82l-41-37z"/></g><g fill="#0e0e0e" transform="matrix(.1 0 0 -.1 0 300)"><path d="m874 1835-7-17 15-14 14-15 18 7 17 7-3 21-3 21-23 3-22 3-6-16zm433-32c-4-3-7-19-7-34v-29l-25-6-25-6v-38h38l6-16c3-9 6-44 6-79v-63l18-20 17-21 38-7 37-6v51l-27 3-28 3v150l30 5 30 5v30l-30 5-30 5-3 38-3 37h-18c-10 0-21-3-24-7zm-242-70c-11-3-30-14-42-26l-23-20v-45l15-12c9-7 39-21 67-30l52-17 10-16 10-15-13-16-13-16h-56l-12 15-12 15h-50l6-16c3-9 6-17 6-20 0-2 13-10 30-19l29-15h82l24 25 25 24v61l-22 13c-13 8-45 20-71 27l-49 13-6 15-5 15 18 13c25 18 50 18 69-1 15-16 56-21 56-7 0 5-10 18-22 29l-23 21-30 5c-16 3-39 3-50 0zm468-7-31-14-11-21c-15-28-14-31 13-31h24l12 15 12 15h78l11-27 10-26-11-7c-6-3-34-7-63-9l-52-2-25-18-25-18-3-30-3-31 27-21 27-21h64l28 21 27 22 9-14c5-8 10-18 12-23l3-10 18 7 18 7-4 95-3 95-25 24-25 25-40 6-40 5-32-14zm102-156v-24l-26-15-25-14-27 7-27 6v49l18 10 17 11 35-3 35-2v-25zm231 145-38-26-5 21-5 20h-49l3-122 3-123 21-3 22-3 3 84 4 85 19 21 19 21h65l13-16 14-17 5-86 5-86h40l3 84 3 85-12 29-12 29-33 14c-44 18-45 18-88-11zm274 7-35-19-17-34-18-34v-60l20-33 20-33 35-15c19-8 47-14 62-14h28l38 31c20 17 37 35 37 40v9h-58l-6-15-5-15h-78l-19 21-19 21 1 41 2 41 22 18 22 18h57l13-13c7-7 23-16 35-19l23-6 6 10 6 9-18 21c-45 49-98 59-154 30zm315 4c-37-16-59-41-73-83l-11-32 10-35 9-34 36-31 35-31h70l29 15c16 8 34 24 40 35l11 20h-25c-13 0-37-7-53-16l-28-16-28 11-27 11-12 25c-6 14-9 28-6 31 4 3 48 7 100 8l93 2-2 28c-1 16-9 39-18 53l-17 25-33 14c-42 17-61 17-100 0zm105-51 12-15-6-15-5-15h-50c-78 0-97 13-65 44l15 16h87l12-15zm-1682 43c-2-7-2-64 0-126l4-113 21 3 22 3 3 123 3 122h-49l-4-12zm76-322-31-14-20-28c-11-16-25-44-33-62l-13-32 5-45 5-44 20-37 20-38 43-23 43-23h88l29 15c28 15 70 60 70 76v9h-58l-6-15-6-16-36-15-35-15-22 6c-43 12-69 30-83 57l-14 27v102l16 30 15 31 34 14c19 8 46 14 60 14h27l30-31 31-30 23 3 24 3-13 25c-7 13-28 35-46 47l-34 23h-51l-51-1-31-13zm1859-57-6-32-18-4c-10-3-20-11-23-19l-6-15 25-9 25-10v-148l18-22 17-21 43-6 42-6v53h-19c-11 0-26 3-35 6l-16 6v136l16 6c9 3 24 6 35 6h19v28c1 4-14 9-32 12l-33 5-3 33-3 32h-39l-7-31zm-1522-65-31-25-10-39-10-38 12-38 13-38 34-23 34-23h58l40 20 40 21 9 25c6 14 10 41 10 60v35l-15 29-15 30-30 15-29 15h-79l-31-26zm124-39 25-24v-68l-21-27-20-26h-55l-22 20-22 21v83l22 23 21 23h48l24-25zm145-60v-125h50v167l23 21 23 22h25c13 0 31-5 39-10l15-9 5-93 5-93h50v184l-21 28-21 28-43 3-42 3-23-21-24-22-10 7c-6 3-11 13-11 21v14h-40v-125zm310 0v-125h50v167l23 21 23 22h51l16-18 16-18 3-84 3-85h50v184l-21 28-21 28-43 3-42 3-23-21-24-22-10 7c-6 3-11 13-11 21v14h-40v-125zm348 106-24-20-19-40-18-41 11-38 12-38 26-25 26-24h116l26 24c14 14 26 28 26 33 0 13-43 8-64-7l-20-15h-52l-22 20-22 21v38l98 3 97 3-3 20c-2 11-8 33-14 48l-11 28-28 14-28 15h-88l-25-19zm127-37c9-9 14-21 12-28l-4-11-58-3-58-3-10 10-11 11 19 20 18 20h76l16-16zm169 23-37-33-4-51-5-51 34-37 34-37 45-5 46-5 31 16c27 14 52 43 52 60 0 3-9 6-21 6h-21l-25-20c-28-22-55-25-83-10l-18 10-11 32-11 32 11 33 11 33 18 10c10 6 30 10 43 10h24l18-20 18-20h47v11c0 6-13 24-29 40l-29 29h-102l-36-33z"/></g></g></svg>