<svg width="28" height="30" viewBox="0 0 28 30" fill="none" xmlns="http://www.w3.org/2000/svg">
<g id="Featured Icons">
<rect width="28" height="30" rx="8" fill="#F0F6FF"/>
<path id="Vector" d="M18.2923 14.1079L20.332 12.1544L20.3439 12.1423C20.764 11.7147 21 11.1347 21 10.53C21 9.92534 20.764 9.3454 20.3439 8.91781C19.9238 8.49022 19.354 8.25 18.7599 8.25C18.1658 8.25 17.596 8.49022 17.1759 8.91781C17.1759 8.92208 17.1682 8.92565 17.164 8.92992L15.2447 11.0059L9.43514 8.8544C9.33501 8.81733 9.22657 8.81011 9.12254 8.83358C9.01852 8.85706 8.92324 8.91025 8.84788 8.98691L7.16799 10.6968C7.10946 10.7564 7.06464 10.8285 7.03678 10.9079C7.00892 10.9872 6.9987 11.0719 7.00687 11.1558C7.01504 11.2397 7.04139 11.3207 7.08401 11.393C7.12664 11.4652 7.18449 11.527 7.25339 11.5738L11.7254 14.608L10.6881 15.6603H9.23985C9.09154 15.6603 8.94931 15.7203 8.84438 15.827L7.16449 17.5368C7.09898 17.6033 7.05068 17.6853 7.02392 17.7755C6.99716 17.8657 6.99278 17.9612 7.01115 18.0535C7.02952 18.1458 7.07009 18.232 7.12922 18.3045C7.18835 18.3769 7.2642 18.4334 7.34998 18.4687L9.9272 19.5181L10.9561 22.1363L10.9603 22.1477C10.9959 22.2354 11.0525 22.3126 11.1248 22.3725C11.1972 22.4323 11.2831 22.4728 11.3747 22.4902C11.4664 22.5077 11.5608 22.5016 11.6496 22.4725C11.7383 22.4435 11.8185 22.3923 11.8829 22.3236L13.5537 20.6224C13.6059 20.5696 13.6475 20.507 13.676 20.4379C13.7044 20.3688 13.7192 20.2947 13.7195 20.2198V18.7458L14.7527 17.6943L17.7338 22.246C17.7797 22.3161 17.8404 22.375 17.9114 22.4184C17.9824 22.4618 18.062 22.4886 18.1444 22.4969C18.2268 22.5052 18.31 22.4948 18.388 22.4665C18.466 22.4381 18.5368 22.3925 18.5954 22.3329L20.2753 20.6231C20.3506 20.5464 20.4029 20.4494 20.4259 20.3435C20.449 20.2376 20.4419 20.1273 20.4055 20.0253L18.2923 14.1079ZM18.2874 21.0349L15.3063 16.4838C15.2606 16.4132 15.2001 16.3538 15.129 16.3099C15.0579 16.266 14.9781 16.2388 14.8955 16.2302C14.8766 16.2302 14.8584 16.2302 14.8402 16.2302C14.7666 16.2302 14.6937 16.2451 14.6257 16.2738C14.5577 16.3025 14.496 16.3446 14.444 16.3976L12.7641 18.1075C12.659 18.2142 12.5999 18.3589 12.5996 18.51V19.984L11.6848 20.9152L10.8798 18.8662C10.8517 18.7951 10.8097 18.7305 10.7564 18.6762C10.7031 18.622 10.6396 18.5793 10.5698 18.5506L8.5581 17.7313L9.47224 16.8002H10.9197C10.9933 16.8002 11.0661 16.7855 11.1341 16.7569C11.2021 16.7283 11.2639 16.6864 11.3159 16.6334L12.9958 14.9236C13.0545 14.864 13.0994 14.7918 13.1273 14.7124C13.1553 14.6329 13.1655 14.5481 13.1573 14.4642C13.1492 14.3802 13.1228 14.2991 13.0801 14.2268C13.0374 14.1544 12.9794 14.0927 12.9104 14.0459L8.43911 11.0109L9.38404 10.0499L15.209 12.2057C15.3117 12.2441 15.4231 12.251 15.5296 12.2257C15.636 12.2004 15.7329 12.1439 15.8082 12.0632L17.9739 9.71858C18.1849 9.51002 18.4682 9.39436 18.7624 9.39662C19.0565 9.39887 19.338 9.51885 19.546 9.73063C19.754 9.94241 19.8717 10.229 19.8738 10.5284C19.8759 10.8278 19.7621 11.1161 19.5571 11.3308L17.2564 13.5344C17.1771 13.611 17.1216 13.7096 17.0967 13.818C17.0719 13.9263 17.0787 14.0397 17.1164 14.1442L19.2345 20.0731L18.2874 21.0349Z" fill="url(#paint0_linear_2499_16336)"/>
</g>
<defs>
<linearGradient id="paint0_linear_2499_16336" x1="24.4335" y1="15.6983" x2="11.2706" y2="12.7592" gradientUnits="userSpaceOnUse">
<stop stop-color="#7AC5FF"/>
<stop offset="1" stop-color="#1C7AFF"/>
</linearGradient>
</defs>
</svg>
