<svg width="393" height="425" viewBox="0 0 393 425" fill="none" xmlns="http://www.w3.org/2000/svg">
<path d="M0 0.5H252.5C274.5 0.5 308.5 18.5 306.5 56.5C304.263 99 271.5 110.125 256.5 110.5C241.5 110.875 136.5 112 136.5 112C123 113.333 98.5148 124.784 96 161.5C93.5 198 122.5 214 141.5 215.5C160.5 217 224 215.289 245 217.5C266 219.711 292.323 238.753 286.5 280C280.5 322.5 239 323 215.5 323L77.5 321.5C60.3333 322.5 26 333.7 26 370.5C26 407.3 52.6667 421.833 66 424.5H395.5" stroke="white" stroke-width="0.9" stroke-dasharray="10 10"/>
</svg>
