<svg width="25" height="27" viewBox="0 0 25 27" fill="none" xmlns="http://www.w3.org/2000/svg">
<path id="Star 5" d="M12.0303 1.28612C12.1903 0.848131 12.8097 0.848131 12.9697 1.28612L15.9612 9.47805C16.0086 9.60793 16.1077 9.71237 16.2349 9.76655L23.92 13.04C24.3254 13.2127 24.3254 13.7873 23.92 13.96L16.2349 17.2334C16.1077 17.2876 16.0086 17.3921 15.9612 17.5219L12.9697 25.7139C12.8097 26.1519 12.1903 26.1519 12.0303 25.7139L9.03881 17.5219C8.99138 17.3921 8.89229 17.2876 8.76508 17.2334L1.07997 13.96C0.674555 13.7873 0.674555 13.2127 1.07997 13.04L8.76508 9.76655C8.89229 9.71237 8.99138 9.60793 9.03881 9.47805L12.0303 1.28612Z" fill="#EDFB90"/>
</svg>
