<svg width="24" height="24" viewBox="0 0 24 24" fill="none" xmlns="http://www.w3.org/2000/svg">
<g id="Filled/Star">
<path id="Star" d="M21 10.207C20.9911 10.419 20.879 10.6611 20.6616 10.8523C19.791 11.6171 18.9199 12.3811 18.0484 13.1445C17.6415 13.5015 17.234 13.858 16.826 14.2139C16.7677 14.2646 16.7528 14.3095 16.7708 14.3882C17.084 15.757 17.3947 17.1263 17.7028 18.4962C17.7652 18.7715 17.8266 19.0473 17.894 19.3217C17.9923 19.728 17.8668 20.1295 17.5501 20.3568C17.2017 20.6067 16.8317 20.623 16.4634 20.4046C15.2903 19.7072 14.1187 19.007 12.9486 18.3041C12.6754 18.1408 12.3989 17.9814 12.1302 17.8122C12.0404 17.7556 11.9751 17.7551 11.8829 17.8105C10.4599 18.6647 9.03387 19.5136 7.61258 20.3675C7.31073 20.5487 7.00243 20.6168 6.6688 20.4798C6.22738 20.2987 5.99675 19.8346 6.10645 19.3523C6.41666 17.9872 6.72735 16.622 7.03852 15.2569C7.104 14.9701 7.16256 14.6812 7.23354 14.3965C7.25409 14.3143 7.23975 14.2658 7.17737 14.2116C6.64267 13.7465 6.10932 13.2798 5.57732 12.8115C4.8319 12.1572 4.08362 11.5074 3.3425 10.8482C3.03994 10.5796 2.92522 10.2366 3.04926 9.84445C3.1733 9.45226 3.45053 9.21614 3.86399 9.17359C4.59674 9.09855 5.33068 9.0357 6.06415 8.96854C6.78973 8.9021 7.51531 8.83614 8.24089 8.77065C8.48275 8.74891 8.72461 8.72453 8.96671 8.70613C9.04462 8.70039 9.08621 8.66621 9.11536 8.59523C9.77259 7.05086 10.4309 5.50713 11.0904 3.96404C11.2725 3.53744 11.5978 3.29916 12.0112 3.30992C12.4247 3.32067 12.723 3.52262 12.8869 3.90238C13.3331 4.93554 13.7736 5.9711 14.2159 7.00617C14.4411 7.53196 14.6667 8.05917 14.888 8.58735C14.9219 8.6686 14.9704 8.70015 15.0553 8.70684C15.6384 8.75623 16.2214 8.80802 16.8042 8.86219C17.6528 8.9393 18.5013 9.01705 19.3497 9.09544C19.6193 9.11934 19.8891 9.14324 20.158 9.17336C20.647 9.23119 21.0038 9.63915 21 10.207Z" fill="#3D568F"/>
</g>
</svg>
